<svg xmlns="http://www.w3.org/2000/svg" width="18" height="13" fill="none"><path fill="#004B70" d="M9.375 2.25c0-.833.668-1.5 1.5-1.5H13.5c.825 0 1.5.675 1.5 1.5v1.62a2.24 2.24 0 0 0-1.5 2.107V7.5H9.375V2.25ZM4.5 5.97V7.5h4.125V2.25c0-.833-.668-1.5-1.5-1.5H4.5c-.825 0-1.5.675-1.5 1.5v1.612c.87.308 1.5 1.14 1.5 2.108Zm10.995-1.447c-.735.12-1.245.817-1.245 1.567v2.16H3.75V6a1.5 1.5 0 0 0-3 0v3.75c0 .825.675 1.5 1.5 1.5v1.5h1.5v-1.5h10.5v1.5h1.5v-1.5c.825 0 1.5-.675 1.5-1.5V6c0-.907-.817-1.635-1.755-1.478Z"/></svg>