<svg width="16" height="16" viewBox="0 0 16 16" fill="none" xmlns="http://www.w3.org/2000/svg">
<path d="M4.25 2.75C4.64782 2.75 5.02936 2.90804 5.31066 3.18934C5.59196 3.47064 5.75 3.85218 5.75 4.25C5.75 4.64782 5.59196 5.02936 5.31066 5.31066C5.02936 5.59196 4.64782 5.75 4.25 5.75C3.4175 5.75 2.75 5.0825 2.75 4.25C2.75 3.4175 3.425 2.75 4.25 2.75ZM14 8.75V2.6225C14 1.4525 13.0475 0.5 11.8775 0.5C11.315 0.5 10.775 0.725 10.3775 1.1225L9.44 2.06C9.32 2.0225 9.1925 2 9.0575 2C8.75 2 8.48 2.09 8.2475 2.24L10.3175 4.31C10.4675 4.0775 10.5575 3.8 10.5575 3.5C10.5575 3.365 10.535 3.245 10.505 3.125L11.4425 2.18C11.5297 2.09384 11.6404 2.03541 11.7608 2.01207C11.8811 1.98873 12.0056 2.00153 12.1187 2.04884C12.2318 2.09616 12.3283 2.17588 12.3962 2.27796C12.464 2.38004 12.5002 2.49992 12.5 2.6225V8.75H7.3625C7.1375 8.5925 6.935 8.4125 6.7475 8.21L5.6975 7.0475C5.555 6.875 5.375 6.7625 5.18 6.6725C4.9475 6.56 4.6925 6.5 4.43 6.5C3.5 6.5 2.75 7.25 2.75 8.1875V8.75H0.5V13.25C0.5 14.075 1.175 14.75 2 14.75C2 15.1625 2.3375 15.5 2.75 15.5H13.25C13.6625 15.5 14 15.1625 14 14.75C14.825 14.75 15.5 14.075 15.5 13.25V8.75H14Z" fill="#004B70"/>
</svg>
