<svg width="12" height="14" viewBox="0 0 12 14" fill="none" xmlns="http://www.w3.org/2000/svg">
<path d="M5.25 2.5H6.75V7.75H5.25V2.5ZM3.75 13C3.75 13.1989 3.67098 13.3897 3.53033 13.5303C3.38968 13.671 3.19891 13.75 3 13.75H0.75C0.551088 13.75 0.360322 13.671 0.21967 13.5303C0.0790178 13.3897 0 13.1989 0 13V9.25L1.5 2.5H4.5V7.75C4.5 7.94891 4.42098 8.13968 4.28033 8.28033C4.13968 8.42098 3.94891 8.5 3.75 8.5V13ZM4.5 1.75H2.25V0.25H4.5V1.75ZM8.25 13V8.5C8.05109 8.5 7.86032 8.42098 7.71967 8.28033C7.57902 8.13968 7.5 7.94891 7.5 7.75V2.5H10.5L12 9.25V13C12 13.1989 11.921 13.3897 11.7803 13.5303C11.6397 13.671 11.4489 13.75 11.25 13.75H9C8.80109 13.75 8.61032 13.671 8.46967 13.5303C8.32902 13.3897 8.25 13.1989 8.25 13ZM7.5 1.75V0.25H9.75V1.75H7.5Z" fill="#004B70"/>
</svg>
