<svg width="18" height="12" viewBox="0 0 18 12" fill="none" xmlns="http://www.w3.org/2000/svg">
<path d="M14.25 2.25H8.25V7.5H2.25V0.75H0.75V12H2.25V9.75H15.75V12H17.25V5.25C17.25 4.45435 16.9339 3.69129 16.3713 3.12868C15.8087 2.56607 15.0456 2.25 14.25 2.25ZM5.25 6.75C5.84674 6.75 6.41903 6.51295 6.84099 6.09099C7.26295 5.66903 7.5 5.09674 7.5 4.5C7.5 3.90326 7.26295 3.33097 6.84099 2.90901C6.41903 2.48705 5.84674 2.25 5.25 2.25C4.65326 2.25 4.08097 2.48705 3.65901 2.90901C3.23705 3.33097 3 3.90326 3 4.5C3 5.09674 3.23705 5.66903 3.65901 6.09099C4.08097 6.51295 4.65326 6.75 5.25 6.75Z" fill="#004B70"/>
</svg>
