<svg width="16" height="16" viewBox="0 0 16 16" fill="none" xmlns="http://www.w3.org/2000/svg">
<path d="M2 15.5C1.5875 15.5 1.2345 15.3533 0.941 15.0598C0.647 14.7658 0.5 14.4125 0.5 14V2C0.5 1.5875 0.647 1.23425 0.941 0.94025C1.2345 0.64675 1.5875 0.5 2 0.5H14C14.4125 0.5 14.7658 0.64675 15.0598 0.94025C15.3533 1.23425 15.5 1.5875 15.5 2V14C15.5 14.4125 15.3533 14.7658 15.0598 15.0598C14.7658 15.3533 14.4125 15.5 14 15.5H2ZM5.75 9.5C5.5375 9.5 5.3595 9.428 5.216 9.284C5.072 9.1405 5 8.9625 5 8.75C5 8.5375 5.072 8.35925 5.216 8.21525C5.3595 8.07175 5.5375 8 5.75 8C5.9625 8 6.14075 8.07175 6.28475 8.21525C6.42825 8.35925 6.5 8.5375 6.5 8.75C6.5 8.9625 6.42825 9.1405 6.28475 9.284C6.14075 9.428 5.9625 9.5 5.75 9.5ZM10.25 9.5C10.0375 9.5 9.8595 9.428 9.716 9.284C9.572 9.1405 9.5 8.9625 9.5 8.75C9.5 8.5375 9.572 8.35925 9.716 8.21525C9.8595 8.07175 10.0375 8 10.25 8C10.4625 8 10.6408 8.07175 10.7848 8.21525C10.9283 8.35925 11 8.5375 11 8.75C11 8.9625 10.9283 9.1405 10.7848 9.284C10.6408 9.428 10.4625 9.5 10.25 9.5ZM2.75 7.325V12.275C2.75 12.45 2.80625 12.5937 2.91875 12.7062C3.03125 12.8187 3.175 12.875 3.35 12.875H3.65C3.825 12.875 3.96875 12.8187 4.08125 12.7062C4.19375 12.5937 4.25 12.45 4.25 12.275V11.375H11.75V12.275C11.75 12.45 11.8063 12.5937 11.9188 12.7062C12.0313 12.8187 12.175 12.875 12.35 12.875H12.65C12.825 12.875 12.9687 12.8187 13.0812 12.7062C13.1937 12.5937 13.25 12.45 13.25 12.275V7.325L12.0125 3.725C11.95 3.55 11.847 3.40625 11.7035 3.29375C11.5595 3.18125 11.4 3.125 11.225 3.125H4.775C4.6 3.125 4.4405 3.18125 4.2965 3.29375C4.153 3.40625 4.05 3.55 3.9875 3.725L2.75 7.325ZM4.7375 6.125L5.2625 4.625H10.7375L11.2625 6.125H4.7375Z" fill="#004B70"/>
</svg>
