<svg width="16" height="12" viewBox="0 0 16 12" fill="none" xmlns="http://www.w3.org/2000/svg">
<path d="M0.5 2.0625C0.5 1.51549 0.717299 0.990886 1.10409 0.604092C1.49089 0.217298 2.01549 0 2.5625 0H13.4375C13.9845 0 14.5091 0.217298 14.8959 0.604092C15.2827 0.990886 15.5 1.51549 15.5 2.0625V9.9375C15.5 10.2084 15.4467 10.4766 15.343 10.7268C15.2394 10.977 15.0874 11.2044 14.8959 11.3959C14.7044 11.5874 14.477 11.7394 14.2268 11.843C13.9766 11.9467 13.7084 12 13.4375 12H2.5625C2.29165 12 2.02345 11.9467 1.77322 11.843C1.52298 11.7394 1.29561 11.5874 1.10409 11.3959C0.912571 11.2044 0.760649 10.977 0.656998 10.7268C0.553348 10.4766 0.5 10.2084 0.5 9.9375V2.0625ZM11.585 2.415C11.4796 2.30948 11.3366 2.25013 11.1875 2.25H9.3125C9.16332 2.25 9.02024 2.30926 8.91475 2.41475C8.80926 2.52024 8.75 2.66332 8.75 2.8125C8.75 2.96168 8.80926 3.10476 8.91475 3.21025C9.02024 3.31574 9.16332 3.375 9.3125 3.375H9.83L8.54 4.66425C8.48474 4.71575 8.44041 4.77785 8.40966 4.84685C8.37892 4.91585 8.36239 4.99033 8.36106 5.06586C8.35972 5.14139 8.37362 5.21641 8.40191 5.28645C8.4302 5.35649 8.47231 5.42011 8.52572 5.47353C8.57914 5.52694 8.64276 5.56905 8.7128 5.59734C8.78284 5.62563 8.85786 5.63953 8.93339 5.63819C9.00892 5.63686 9.0834 5.62033 9.1524 5.58959C9.2214 5.55884 9.2835 5.51452 9.335 5.45925L10.625 4.17V4.6875C10.625 4.83668 10.6843 4.97976 10.7898 5.08525C10.8952 5.19074 11.0383 5.25 11.1875 5.25C11.3367 5.25 11.4798 5.19074 11.5852 5.08525C11.6907 4.97976 11.75 4.83668 11.75 4.6875V2.8125C11.7499 2.66337 11.6905 2.52039 11.585 2.415ZM4.8125 9.75H6.68825C6.83743 9.75 6.98051 9.69074 7.086 9.58525C7.19149 9.47976 7.25075 9.33668 7.25075 9.1875C7.25075 9.03832 7.19149 8.89524 7.086 8.78975C6.98051 8.68426 6.83743 8.625 6.68825 8.625H6.17075L7.46075 7.335C7.56317 7.22886 7.6198 7.08675 7.61845 6.93926C7.61709 6.79178 7.55787 6.65072 7.45353 6.54648C7.34919 6.44223 7.20808 6.38314 7.06059 6.38193C6.9131 6.38072 6.77104 6.43749 6.665 6.54L5.375 7.8285V7.311C5.375 7.16182 5.31574 7.01874 5.21025 6.91325C5.10476 6.80776 4.96168 6.7485 4.8125 6.7485C4.66332 6.7485 4.52024 6.80776 4.41475 6.91325C4.30926 7.01874 4.25 7.16182 4.25 7.311V9.186C4.25 9.33518 4.30926 9.47826 4.41475 9.58375C4.52024 9.68924 4.66332 9.7485 4.8125 9.7485V9.75Z" fill="#004B70"/>
</svg>
