<svg width="14" height="16" viewBox="0 0 14 16" fill="none" xmlns="http://www.w3.org/2000/svg">
<path d="M13.75 6.875C13.75 6.72582 13.6907 6.58274 13.5852 6.47725C13.4798 6.37176 13.3367 6.3125 13.1875 6.3125H0.8125C0.663316 6.3125 0.520242 6.37176 0.414753 6.47725C0.309263 6.58274 0.25 6.72582 0.25 6.875C0.2504 8.12461 0.597676 9.34959 1.25315 10.4135C1.90862 11.4774 2.84656 12.3385 3.9625 12.9008L3.72344 14.5883C3.69905 14.748 3.70957 14.9111 3.75427 15.0664C3.79897 15.2216 3.8768 15.3654 3.98239 15.4877C4.08797 15.6099 4.21881 15.7079 4.3659 15.7748C4.51298 15.8416 4.67281 15.8758 4.83437 15.875H9.16563C9.32719 15.8758 9.48702 15.8416 9.6341 15.7748C9.78119 15.7079 9.91203 15.6099 10.0176 15.4877C10.1232 15.3654 10.201 15.2216 10.2457 15.0664C10.2904 14.9111 10.301 14.748 10.2766 14.5883L10.0375 12.9008C11.1534 12.3385 12.0914 11.4774 12.7469 10.4135C13.4023 9.34959 13.7496 8.12461 13.75 6.875ZM4.83437 14.75L5.03828 13.3367C6.31786 13.721 7.68214 13.721 8.96172 13.3367L9.16563 14.75H4.83437ZM2.21875 5.1875H11.7812C11.8558 5.1875 11.9274 5.15787 11.9801 5.10512C12.0329 5.05238 12.0625 4.98084 12.0625 4.90625V1.8125C12.0625 1.51413 11.944 1.22798 11.733 1.017C11.522 0.806026 11.2359 0.6875 10.9375 0.6875H3.0625C2.76413 0.6875 2.47798 0.806026 2.267 1.017C2.05603 1.22798 1.9375 1.51413 1.9375 1.8125V4.90625C1.9375 4.98084 1.96713 5.05238 2.01988 5.10512C2.07262 5.15787 2.14416 5.1875 2.21875 5.1875ZM4.1875 2.375H5.3125C5.46168 2.375 5.60476 2.43426 5.71025 2.53975C5.81574 2.64524 5.875 2.78832 5.875 2.9375C5.875 3.08668 5.81574 3.22976 5.71025 3.33525C5.60476 3.44074 5.46168 3.5 5.3125 3.5H4.1875C4.03832 3.5 3.89524 3.44074 3.78975 3.33525C3.68426 3.22976 3.625 3.08668 3.625 2.9375C3.625 2.78832 3.68426 2.64524 3.78975 2.53975C3.89524 2.43426 4.03832 2.375 4.1875 2.375Z" fill="#004B70"/>
</svg>
