<svg viewBox="0 0 26 26" fill="none" xmlns="http://www.w3.org/2000/svg">
<path d="M11.7 19.5H14.3V14.3H19.5V11.7H14.3V6.5H11.7V11.7H6.5V14.3H11.7V19.5ZM13 26C11.2017 26 9.51167 25.6585 7.93 24.9756C6.34833 24.2935 4.9725 23.3675 3.8025 22.1975C2.6325 21.0275 1.70647 19.6517 1.0244 18.07C0.341467 16.4883 0 14.7983 0 13C0 11.2017 0.341467 9.51167 1.0244 7.93C1.70647 6.34833 2.6325 4.9725 3.8025 3.8025C4.9725 2.6325 6.34833 1.70603 7.93 1.0231C9.51167 0.341033 11.2017 0 13 0C14.7983 0 16.4883 0.341033 18.07 1.0231C19.6517 1.70603 21.0275 2.6325 22.1975 3.8025C23.3675 4.9725 24.2935 6.34833 24.9756 7.93C25.6585 9.51167 26 11.2017 26 13C26 14.7983 25.6585 16.4883 24.9756 18.07C24.2935 19.6517 23.3675 21.0275 22.1975 22.1975C21.0275 23.3675 19.6517 24.2935 18.07 24.9756C16.4883 25.6585 14.7983 26 13 26Z" fill="#024490"/>
</svg>
