<svg viewBox="0 0 103 73" fill="none" xmlns="http://www.w3.org/2000/svg">
<g clip-path="url(#clip0_8_31)">
<path d="M11.1497 10.5857H15.6026L21.0296 28.3202C22.1428 32.1695 22.9778 35.3315 24.2301 39.1808H24.3693C25.6217 35.3315 26.4566 32.1695 27.5698 28.3202L32.8577 10.5857H37.1715L26.5958 43.58H21.7254L11.1497 10.5857Z" fill="#F4F4F4"/>
<path d="M41.7635 10.5857H45.9382V43.58H41.7635V10.5857Z" fill="#F4F4F4"/>
<path d="M50.5303 10.5857H54.9832L60.4102 28.3202C61.5235 32.1695 62.3584 35.3315 63.6108 39.1808H63.7499C65.0023 35.3315 65.8372 32.1695 66.9505 28.3202L72.2383 10.5857H76.5521L65.9764 43.58H61.106L50.5303 10.5857Z" fill="#F4F4F4"/>
<path d="M80.4484 6.46139L87.5453 0L89.9109 2.74953L82.2574 8.52354L80.4484 6.46139ZM81.005 10.5857H85.1797V43.58H81.005V10.5857Z" fill="#F4F4F4"/>
<path d="M0.295654 51.2787H6.27928C9.75814 51.2787 12.6804 52.516 12.6804 56.3653C12.6804 60.0772 9.75814 61.7269 6.27928 61.7269H4.05282V67.6384H0.295654V51.2787ZM6.00097 58.8399C7.94913 58.8399 9.06237 58.0151 9.06237 56.3653C9.06237 54.7156 7.94913 54.1657 6.00097 54.1657H4.05282V58.8399H6.00097ZM5.58351 60.7646L8.22744 58.4275L13.5153 67.6384H9.34067L5.58351 60.7646Z" fill="#009D45"/>
<path d="M14.7677 64.2015C14.7677 61.5895 16.855 60.0772 21.8646 59.6648C21.7254 58.565 21.1688 57.8776 19.9164 57.8776C18.8032 57.8776 17.8291 58.29 16.5767 58.9774L15.1852 56.5028C16.855 55.5405 18.664 54.8531 20.6122 54.8531C23.8127 54.8531 25.6217 56.6403 25.6217 60.4897V67.6384H22.5603L22.282 66.4011H22.1429C21.0296 67.3635 19.9164 68.0509 18.5249 68.0509C16.2984 67.9134 14.7677 66.2637 14.7677 64.2015ZM21.8646 64.064V61.8644C19.2206 62.2768 18.3857 62.9642 18.3857 63.9266C18.3857 64.7514 18.9423 65.1639 19.7773 65.1639C20.7513 65.1639 21.3079 64.7514 21.8646 64.064Z" fill="#009D45"/>
<path d="M28.8223 55.1281H31.8837L32.162 56.7778H32.3011C33.4144 55.8155 34.6667 54.8531 36.3366 54.8531C39.1197 54.8531 40.2329 56.7778 40.2329 59.9397V67.6384H36.4757V60.3522C36.4757 58.565 35.9191 58.0151 34.945 58.0151C33.971 58.0151 33.4144 58.4275 32.5794 59.2524V67.6384H28.8223V55.1281Z" fill="#009D45"/>
<path d="M42.5985 61.452C42.5985 57.4652 45.5207 54.8531 48.5821 54.8531C52.2001 54.8531 54.0091 57.4652 54.0091 60.9021C54.0091 61.5895 53.87 62.2768 53.87 62.5518H46.3557C46.634 64.339 47.8864 65.1639 49.6954 65.1639C50.6695 65.1639 51.5044 64.8889 52.4785 64.339L53.7308 66.5386C52.4785 67.3635 50.8086 67.9134 49.2779 67.9134C45.5207 67.9134 42.5985 65.5763 42.5985 61.452ZM50.8086 60.0772C50.8086 58.7025 50.252 57.7401 48.7213 57.7401C47.4689 57.7401 46.4948 58.565 46.2165 60.0772H50.8086Z" fill="#009D45"/>
<path d="M56.6531 63.7891V50.0414H60.4102V63.9266C60.4102 64.7514 60.8277 65.0264 61.106 65.0264C61.2452 65.0264 61.3843 65.0264 61.5235 65.0264L61.9409 67.7759C61.5235 67.9134 60.9669 68.0509 59.9928 68.0509C57.488 67.9134 56.6531 66.2637 56.6531 63.7891Z" fill="#009D45"/>
<path d="M63.3325 64.2015C63.3325 61.5895 65.4198 60.0772 70.4293 59.6648C70.2902 58.565 69.7336 57.8776 68.4812 57.8776C67.3679 57.8776 66.3938 58.29 65.1415 58.9774L63.7499 56.5028C65.4198 55.5405 67.2288 54.8531 69.1769 54.8531C72.3775 54.8531 74.1865 56.6403 74.1865 60.4897V67.6384H71.1251L70.8468 66.4011H70.7076C69.7335 67.3635 68.4812 67.9134 67.0896 67.9134C64.724 67.9134 63.3325 66.2637 63.3325 64.2015ZM70.4293 64.064V61.8644C67.7854 62.2768 66.9505 62.9642 66.9505 63.9266C66.9505 64.7514 67.5071 65.1639 68.342 65.1639C69.1769 65.1639 69.7336 64.7514 70.4293 64.064Z" fill="#009D45"/>
<path d="M76.5521 69.8381C76.5521 68.7382 77.2479 67.9134 78.3611 67.3635V67.226C77.6654 66.8136 77.2479 66.1262 77.2479 65.1639C77.2479 64.2015 77.8045 63.3767 78.6394 62.8268V62.6893C77.8045 62.1394 76.9696 60.9021 76.9696 59.3898C76.9696 56.3654 79.4744 54.8531 82.2574 54.8531C82.9532 54.8531 83.649 54.9906 84.2056 55.1281H88.7977V57.8776H86.7104C86.9887 58.29 87.1278 58.8399 87.1278 59.5273C87.1278 62.4143 84.9014 63.7891 82.1183 63.7891C81.7008 63.7891 81.1442 63.6516 80.5876 63.5141C80.3093 63.7891 80.1701 64.064 80.1701 64.4765C80.1701 65.0264 80.7267 65.4388 82.1183 65.4388H84.2056C87.267 65.4388 89.076 66.4011 89.076 68.6008C89.076 71.2128 86.2929 73.1375 81.9791 73.1375C78.9177 73 76.5521 72.0377 76.5521 69.8381ZM85.3188 69.1507C85.3188 68.3258 84.6231 68.1883 83.3707 68.1883H82.1183C81.2834 68.1883 80.7267 68.1883 80.3093 68.0509C79.8918 68.3258 79.6135 68.7382 79.6135 69.1507C79.6135 70.113 80.7267 70.5254 82.3966 70.5254C84.0664 70.6629 85.3188 69.9755 85.3188 69.1507ZM83.7881 59.3898C83.7881 58.0151 83.0924 57.3277 82.1183 57.3277C81.1442 57.3277 80.4484 58.0151 80.4484 59.3898C80.4484 60.7646 81.1442 61.452 82.1183 61.452C83.0924 61.452 83.7881 60.7646 83.7881 59.3898Z" fill="#009D45"/>
<path d="M90.885 50.0414H94.6422V54.3032L94.503 56.5028C95.4771 55.678 96.7295 54.7156 98.3993 54.7156C101.182 54.7156 102.296 56.6403 102.296 59.8023V67.5009H98.5385V60.2147C98.5385 58.4275 97.9819 57.8776 97.0078 57.8776C96.0337 57.8776 95.4771 58.29 94.6422 59.1149V67.5009H90.885V50.0414Z" fill="#009D45"/>
</g>
<defs>
<clipPath id="clip0_8_31">
<rect width="102" height="73" fill="white" transform="translate(0.295654)"/>
</clipPath>
</defs>
</svg>
